<svg width="28" height="20" viewBox="0 0 28 20" fill="none" xmlns="http://www.w3.org/2000/svg">
<path d="M6.94101 16.656C7.5432 17.045 8.13044 17.3405 8.74386 17.5724C9.08049 17.6996 9.10668 17.8492 8.93088 18.126C8.58677 18.6646 8.25013 19.207 7.92098 19.7568C7.77885 19.9962 7.62549 20.0485 7.35245 19.9588C5.16807 19.2294 3.14079 18.2045 1.26313 16.873C1.03871 16.7121 1.01253 16.5064 0.990084 16.2745C0.675894 12.796 1.18458 9.43711 2.48623 6.2017C3.08095 4.72425 3.8365 3.3291 4.70053 1.99379C4.85388 1.7544 5.02968 1.58609 5.29525 1.47388C6.77643 0.826792 8.30624 0.359246 9.88467 0.0300938C10.2924 -0.0521943 10.5168 0.0226131 10.629 0.40039C10.8572 1.15594 11.2574 1.39907 12.1027 1.25319C13.6325 0.991368 15.1923 1.07366 16.7333 1.31678C17.0437 1.3654 17.1746 1.25693 17.3018 0.987628C17.803 -0.0596749 17.8143 -0.0671557 18.9364 0.172228C20.3427 0.471457 21.693 0.935262 23.0096 1.51128C23.2191 1.60479 23.35 1.75066 23.4659 1.9302C26.3311 6.28773 27.6402 11.0455 27.2175 16.2633C27.1951 16.5588 27.1091 16.757 26.8585 16.9328C25.0406 18.2158 23.0695 19.1845 20.9749 19.9214C20.627 20.0448 20.4101 20.0037 20.2193 19.667C19.935 19.1621 19.6208 18.6721 19.3067 18.1821C19.1122 17.8754 19.1084 17.6884 19.5124 17.5462C19.9687 17.3891 20.3988 17.161 20.829 16.9403C20.9749 16.8655 21.2965 16.8243 21.1768 16.5924C21.0684 16.3755 20.8439 16.1773 20.5036 16.3381C19.7854 16.6785 19.0373 16.9328 18.2668 17.146C14.7359 18.1222 11.2911 17.8417 7.92472 16.4428C7.58061 16.3007 7.24896 16.373 6.92979 16.6598L6.94101 16.656ZM12.084 10.9894C12.084 9.83359 11.4668 8.85736 10.5168 8.4908C9.61163 8.14295 8.67654 8.39355 8.00327 9.16407C7.09436 10.2076 7.15047 11.9469 8.11922 12.9344C9.17026 14.0041 10.7936 13.8395 11.6127 12.5753C11.9269 12.0928 12.099 11.5654 12.084 10.9856V10.9894ZM16.1348 10.6527C16.1311 12.3247 16.9951 13.4505 18.2145 13.6338C19.2767 13.7946 20.3914 13.0279 20.7317 11.8309C21.0459 10.7238 20.8477 9.71016 19.965 8.91346C19.2693 8.28882 18.4501 8.13173 17.5936 8.54317C16.6099 9.01819 16.1722 9.86352 16.1348 10.649V10.6527Z" fill="white"/>
</svg>
