<svg width="23" height="18" viewBox="0 0 23 18" fill="none" xmlns="http://www.w3.org/2000/svg">
<path d="M22.6449 17.8888H13.6632C13.7989 17.6388 13.8596 17.4353 13.9918 17.2996C14.456 16.821 14.9632 16.3818 15.4096 15.8925C15.5774 15.7068 15.7274 15.4175 15.731 15.1747C15.7524 11.9534 15.7488 8.73215 15.7453 5.51088C15.7453 5.48588 15.7131 5.45731 15.6596 5.3716C15.5774 5.56802 15.506 5.72872 15.4417 5.88943C13.9346 9.71067 12.4311 13.5283 10.9241 17.3496C10.8276 17.596 10.8026 17.8674 10.4027 17.8817C9.9884 17.8995 9.91698 17.6317 9.79199 17.3674C7.96708 13.3819 6.14217 9.39997 4.26369 5.30374C4.22798 5.51802 4.19583 5.62873 4.19583 5.73587C4.19226 8.40359 4.17798 11.0677 4.20655 13.7355C4.20655 14.0533 4.37083 14.4211 4.57082 14.6818C5.22078 15.5354 5.93146 16.3425 6.60286 17.1782C6.73857 17.346 6.81713 17.5603 6.96713 17.8388H0.0996094C0.235317 17.5674 0.303171 17.3496 0.435307 17.1853C1.1067 16.3461 1.81381 15.5389 2.46735 14.6854C2.66734 14.4247 2.82805 14.0569 2.82805 13.739C2.85304 10.5178 2.82805 7.2965 2.84233 4.07523C2.84233 3.5824 2.71019 3.18956 2.38164 2.82172C1.8031 2.16461 1.26027 1.48251 0.710293 0.807539C0.581728 0.646833 0.503161 0.450414 0.353168 0.178999C0.628155 0.154 0.78529 0.12543 0.938853 0.12543C2.79233 0.121859 4.64224 0.136144 6.49572 0.111145C6.88142 0.107574 7.04212 0.261137 7.18854 0.58255C8.69918 3.9181 10.2205 7.25008 11.7419 10.5821C11.8026 10.7142 11.8633 10.8499 11.9704 11.0785C12.0776 10.8249 12.1597 10.6499 12.2312 10.4713C13.5561 7.17508 14.8846 3.88239 16.1917 0.58255C16.3309 0.232567 16.4988 0.111145 16.8738 0.114716C18.5951 0.136144 20.3165 0.121859 22.0378 0.12543C22.2021 0.12543 22.3628 0.143286 22.6699 0.157571C22.5271 0.41113 22.4592 0.61112 22.3271 0.746828C21.8735 1.21109 21.3736 1.62893 20.9414 2.10747C20.7629 2.30389 20.6093 2.61102 20.6093 2.86815C20.5879 6.9608 20.5879 11.0499 20.6093 15.1425C20.6093 15.4032 20.7522 15.7139 20.9307 15.9139C21.3593 16.3996 21.8521 16.8246 22.3021 17.2924C22.4342 17.4317 22.5021 17.6317 22.6485 17.8888H22.6449Z" fill="white"/>
</svg>
