<svg width="25" height="20" viewBox="0 0 25 20" fill="none" xmlns="http://www.w3.org/2000/svg">
<path d="M0.5 17.9018C3.1329 18 5.47431 17.3283 7.54958 15.703C5.36342 15.421 3.82994 14.3311 3.0125 12.2843L5.04659 12.1766L5.03708 12.0372C2.39151 10.8649 1.11783 9.24902 1.21922 7.18959L3.24696 7.74405L3.33568 7.61098C1.1907 5.767 0.705943 3.57767 1.86873 0.954274C4.64737 4.17649 8.06602 5.94443 12.2926 6.23275C12.2704 5.80819 12.2292 5.44066 12.2324 5.07313C12.2578 2.92182 13.259 1.34398 15.2012 0.479021C17.1212 -0.376434 18.9588 -0.0754401 20.5715 1.29646C20.882 1.55943 21.1418 1.62596 21.4935 1.49289C22.3331 1.1824 23.1727 0.878234 24.0313 0.561399C23.6828 1.59111 22.989 2.38637 22.0987 3.03905L22.1715 3.1943L24.627 2.54796L24.7252 2.64301C24.006 3.34638 23.2773 4.04025 22.5739 4.75946C22.425 4.91155 22.2888 5.16185 22.2919 5.36462C22.3838 11.5936 18.2586 18.2757 10.9461 19.6982C7.37532 20.3921 3.95984 19.9042 0.775647 18.0792C0.680596 18.0254 0.591882 17.962 0.5 17.9018H0.5Z" fill="white"/>
</svg>
