<svg width="39" height="38" viewBox="0 0 39 38" fill="none" xmlns="http://www.w3.org/2000/svg">
<path d="M29.8314 10.3455L33.3212 6.29442C39.7079 13.341 39.7214 23.9769 33.3481 31.0234L29.7236 26.7216C25.7083 21.9579 25.7487 15.0565 29.8179 10.3455H29.8314ZM10.4691 8.20782C15.2928 12.193 22.3263 12.2326 27.1905 8.30019L36.3529 0.910514C36.7301 0.607009 36.5145 0 36.016 0H19.0656C14.5113 0 9.9436 1.5967 6.33254 4.7769L10.4826 8.20782H10.4691ZM27.6351 29.308C22.8114 25.3228 15.7779 25.2833 10.9137 29.2156L1.96693 36.4338C1.58965 36.7373 1.80524 37.3443 2.30378 37.3443H19.0656C23.5794 37.3443 28.1067 35.774 31.7043 32.6465L27.6486 29.2948L27.6351 29.308ZM8.3806 10.781L4.6887 6.39999C-1.63066 13.4862 -1.57677 24.122 4.85038 31.129L8.27281 27.1571C12.342 22.4329 12.3824 15.5447 8.36713 10.781H8.3806Z" fill="url(#paint0_linear_454_2165)"/>
<defs>
<linearGradient id="paint0_linear_454_2165" x1="1.03721" y1="36.315" x2="36.4208" y2="0.18529" gradientUnits="userSpaceOnUse">
<stop offset="0.13" stop-color="#3838F4"/>
<stop offset="0.36" stop-color="#8B7FFF"/>
<stop offset="0.69" stop-color="#E6FF67"/>
</linearGradient>
</defs>
</svg>
