<svg width="216" height="22" viewBox="0 0 216 22" fill="none" xmlns="http://www.w3.org/2000/svg">
<path d="M43.9088 1.31634V12.1765C43.9088 14.4198 43.0195 16.5312 41.4026 18.1147C39.7857 19.6982 37.6298 20.5691 35.3527 20.5691H33.1025C28.3866 20.5691 24.5465 16.7951 24.5465 12.1765V1.31634C24.5465 1.01283 24.8025 0.762112 25.1124 0.762112H29.1681C29.478 0.762112 29.734 1.01283 29.734 1.31634V12.2029C29.734 14.631 31.7551 16.5971 34.2478 16.5971C36.7405 16.5971 38.7347 14.631 38.7347 12.2029V1.31634C38.7347 1.01283 38.9907 0.762112 39.3006 0.762112H43.3563C43.6662 0.762112 43.9222 1.01283 43.9222 1.31634H43.9088ZM18.1463 10.8965C17.6881 10.4611 17.1627 10.0916 16.5563 9.76168C15.95 9.44498 15.3167 9.15467 14.643 8.91715C13.9693 8.67962 13.2686 8.46849 12.5545 8.28375C11.8404 8.09901 11.1397 7.94066 10.466 7.78231C9.79231 7.62396 9.15903 7.4788 8.55269 7.33365C7.95983 7.18849 7.43434 7.04334 6.98969 6.87179C6.54505 6.71344 6.19472 6.5287 5.93872 6.33076C5.69618 6.13282 5.57491 5.9085 5.57491 5.65777C5.57491 5.5786 5.58839 5.49942 5.61533 5.39386C5.64228 5.30148 5.69618 5.20911 5.7905 5.11674C5.88482 5.02437 6.03303 4.91881 6.22167 4.82644C6.41031 4.73406 6.66632 4.65489 7.00317 4.57571C7.34002 4.49654 7.74425 4.44376 8.22932 4.39097C8.71438 4.35138 9.30724 4.32499 9.99442 4.32499C10.8568 4.32499 11.7056 4.39097 12.5276 4.52293C13.3495 4.65489 14.1175 4.82643 14.8182 5.02437C15.5188 5.22231 16.1521 5.43344 16.7045 5.65777C17.1088 5.81612 17.4726 5.97447 17.769 6.11963L18.1463 6.30437V1.71221L17.9711 1.64623C17.4456 1.47469 16.8662 1.30314 16.2464 1.1316C15.5862 0.96005 14.8855 0.8017 14.1714 0.669742C13.4707 0.537783 12.7297 0.432216 12.0021 0.353041C10.6277 0.221082 9.34767 0.207886 7.83857 0.326649C7.13791 0.379432 6.42378 0.484999 5.75008 0.630154C5.0629 0.775308 4.40267 0.986442 3.76938 1.26355C3.14957 1.52747 2.58366 1.89696 2.11207 2.33242C1.64047 2.76788 1.24973 3.29572 0.966772 3.91592C0.683815 4.53613 0.549072 5.27509 0.549072 6.13282C0.549072 6.8586 0.683812 7.492 0.953295 8.04622C1.22278 8.60045 1.58658 9.0887 2.03122 9.49777C2.48934 9.90684 3.01483 10.2763 3.62117 10.5798C4.21403 10.8833 4.86079 11.1472 5.53449 11.3716C6.19473 11.5959 6.89538 11.7938 7.62298 11.9654C8.33711 12.1369 9.02429 12.2821 9.69799 12.4272C10.3717 12.5724 11.005 12.7176 11.5978 12.8627C12.1907 13.0079 12.7162 13.1662 13.1608 13.3378C13.6055 13.5093 13.9558 13.7072 14.2118 13.9184C14.4544 14.1295 14.5756 14.3802 14.5756 14.6573C14.5756 14.8421 14.5083 15.0268 14.387 15.238C14.2657 15.4359 14.0367 15.6206 13.6729 15.8054C13.3225 15.9769 12.8105 16.1353 12.1772 16.2408C11.5305 16.3596 10.6951 16.4124 9.68452 16.4124C7.95983 16.4124 6.31599 16.2145 4.80689 15.8186C3.41906 15.4491 2.15249 14.9608 1.03414 14.3274L0.643391 14.1031V18.8404L0.805078 18.9064C1.92343 19.3551 3.23042 19.7246 4.68562 20.0281C6.19472 20.3448 7.85204 20.4899 9.61715 20.4899C10.2909 20.4899 11.005 20.4635 11.7595 20.4239C12.5141 20.3711 13.2686 20.2788 13.9962 20.1336C14.7373 19.9885 15.4514 19.7641 16.1117 19.5002C16.7854 19.2231 17.3917 18.8536 17.9037 18.3918C18.4157 17.9299 18.8334 17.3625 19.1433 16.7027C19.4532 16.0429 19.6015 15.238 19.6015 14.3011C19.6015 13.5753 19.4667 12.9287 19.2107 12.3613C18.9547 11.807 18.5909 11.2924 18.1193 10.8701L18.1463 10.8965ZM166.294 2.75469C168.14 4.40417 169.07 7.06973 169.07 10.659C169.07 14.2483 168.14 16.9138 166.294 18.5765C164.448 20.226 161.699 21.0705 158.129 21.0705C154.558 21.0705 151.796 20.226 149.95 18.5765C148.104 16.927 147.161 14.2615 147.161 10.659C147.161 7.05653 148.091 4.40417 149.937 2.75469C151.782 1.1052 154.531 0.26067 158.115 0.26067C161.699 0.26067 164.448 1.09201 166.281 2.75469H166.294ZM152.146 10.6722C152.146 12.9023 152.618 14.6178 153.561 15.7394C154.504 16.8742 156.04 17.4549 158.115 17.4549C160.19 17.4549 161.726 16.8742 162.67 15.7394C163.599 14.6046 164.084 12.9023 164.084 10.6722C164.084 8.4421 163.613 6.72664 162.683 5.59179C161.74 4.44376 160.217 3.87633 158.129 3.87633C156.04 3.87633 154.504 4.45695 153.575 5.59179C152.631 6.72664 152.16 8.4289 152.16 10.6722H152.146ZM193.673 1.06562C193.566 0.907266 193.391 0.814895 193.188 0.814895H189.941C189.348 0.814895 188.809 1.15799 188.58 1.69902L182.921 14.9081L177.262 1.69902C177.033 1.15799 176.494 0.814895 175.901 0.814895H172.654C172.452 0.814895 172.277 0.907266 172.169 1.06562C172.061 1.22397 172.048 1.4219 172.115 1.59345L179.997 19.9621C180.172 20.3711 180.59 20.6483 181.048 20.6483H184.808C185.266 20.6483 185.683 20.3843 185.858 19.9621L193.741 1.59345C193.822 1.40871 193.795 1.22397 193.687 1.05242L193.673 1.06562ZM141.502 0.814895H137.891C137.567 0.814895 137.311 1.06562 137.311 1.38232V14.0635L128.499 1.39551C128.243 1.02603 127.826 0.814895 127.367 0.814895H122.638C122.315 0.814895 122.059 1.06562 122.059 1.38232V20.0808C122.059 20.3975 122.315 20.6483 122.638 20.6483H126.249C126.572 20.6483 126.828 20.3975 126.828 20.0808V7.39963L135.64 20.0676C135.896 20.4371 136.314 20.6483 136.772 20.6483H141.488C141.812 20.6483 142.068 20.3975 142.068 20.0808V1.38232C142.068 1.06562 141.812 0.814895 141.488 0.814895H141.502ZM216 1.71221V20.0808C216 20.3975 215.744 20.6483 215.421 20.6483H211.81C211.486 20.6483 211.23 20.3975 211.23 20.0808V15.6734H200.68L198.551 20.6483H193.983C193.862 20.6483 193.754 20.5955 193.687 20.4899C193.62 20.3843 193.606 20.2656 193.66 20.16L200.303 4.66809C201.313 2.31922 203.644 0.8017 206.245 0.8017H215.097C215.609 0.8017 216.014 1.21077 216.014 1.69902L216 1.71221ZM208.158 4.37778C206.555 4.37778 205.126 5.31468 204.507 6.75303L202.203 12.1105H211.23V4.37778H208.158ZM69.5904 8.4289C69.5904 12.6384 66.1006 16.0561 61.8024 16.0561H54.715V20.0808C54.715 20.3975 54.459 20.6483 54.1356 20.6483H50.5245C50.2012 20.6483 49.9452 20.3975 49.9452 20.0808V1.38232C49.9452 1.06562 50.2012 0.814895 50.5245 0.814895H61.8024C66.1006 0.814895 69.5904 4.23262 69.5904 8.4421V8.4289ZM60.684 4.37778H54.715V12.4932H60.684C62.9611 12.4932 64.8206 10.6722 64.8206 8.4421C64.8206 6.212 62.9611 4.39097 60.684 4.39097V4.37778ZM91.3915 0.814895H74.5489C74.2255 0.814895 73.9695 1.06562 73.9695 1.38232V19.9753C73.9695 20.292 74.2255 20.5427 74.5489 20.5427H91.3915C91.7149 20.5427 91.9709 20.292 91.9709 19.9753V17.5472C91.9709 17.2305 91.7149 16.9798 91.3915 16.9798H78.7393V12.4668H89.7342C90.0576 12.4668 90.3136 12.2161 90.3136 11.8994V9.47137C90.3136 9.15467 90.0576 8.90395 89.7342 8.90395H78.7393V4.39097H91.3915C91.7149 4.39097 91.9709 4.14025 91.9709 3.82355V1.39551C91.9709 1.07881 91.7149 0.828092 91.3915 0.828092V0.814895ZM117.06 20.0149C117.127 20.1204 117.127 20.2524 117.06 20.358C116.992 20.4767 116.885 20.5427 116.75 20.5427H112.735C112.222 20.5427 111.737 20.2788 111.468 19.8433L108.84 15.5811C107.843 13.9976 106.617 13.1794 105.176 13.1794H101.632V19.9621C101.632 20.2788 101.376 20.5295 101.052 20.5295H97.4414C97.118 20.5295 96.862 20.2788 96.862 19.9621V1.38232C96.862 1.06562 97.118 0.814895 97.4414 0.814895H109.258C111.293 0.814895 112.977 1.38232 114.271 2.49077C115.564 3.59922 116.211 5.11674 116.211 7.00375C116.211 9.64292 114.567 11.2528 111.198 11.9258L110.511 12.0578L111.172 12.3085C111.684 12.5064 112.169 12.8363 112.613 13.3114C112.937 13.6545 113.624 14.6178 113.988 15.1588L117.046 20.0149H117.06ZM110.282 4.98479C109.541 4.58891 108.665 4.39097 107.695 4.39097H101.659V9.61653H107.695C108.665 9.61653 109.541 9.41859 110.282 9.02272C111.077 8.60045 111.468 7.94066 111.468 7.00375C111.468 6.06684 111.077 5.42025 110.282 4.98479Z" fill="white"/>
</svg>
